<?xml version="1.0" encoding="UTF-8" standalone="no"?>
<svg
   width="24"
   height="24"
   viewBox="0 0 24 24"
   fill="none"
   stroke="currentColor"
   stroke-width="2"
   stroke-linecap="round"
   stroke-linejoin="round"
   class="lucide lucide-glass-water"
   version="1.1"
   id="svg2"
   sodipodi:docname="trinkaus.svg"
   xml:space="preserve"
   inkscape:version="1.3.2 (091e20e, 2023-11-25, custom)"
   inkscape:export-filename="trinkaus.png"
   inkscape:export-xdpi="4096"
   inkscape:export-ydpi="4096"
   xmlns:inkscape="http://www.inkscape.org/namespaces/inkscape"
   xmlns:sodipodi="http://sodipodi.sourceforge.net/DTD/sodipodi-0.dtd"
   xmlns="http://www.w3.org/2000/svg"
   xmlns:svg="http://www.w3.org/2000/svg"><defs
     id="defs2" /><sodipodi:namedview
     id="namedview2"
     pagecolor="#ffffff"
     bordercolor="#000000"
     borderopacity="0.25"
     inkscape:showpageshadow="2"
     inkscape:pageopacity="0.0"
     inkscape:pagecheckerboard="0"
     inkscape:deskcolor="#d1d1d1"
     showgrid="false"
     inkscape:zoom="128"
     inkscape:cx="10.675781"
     inkscape:cy="18.738281"
     inkscape:window-width="1920"
     inkscape:window-height="1009"
     inkscape:window-x="1072"
     inkscape:window-y="374"
     inkscape:window-maximized="1"
     inkscape:current-layer="svg2" /><path
     style="fill:#b3cde0;fill-opacity:1;stroke:#000000;stroke-width:0;stroke-linejoin:round;stroke-dasharray:none"
     d="m 5.9926199,12.01476 1.5350554,9.298893 8.7675277,-0.177122 1.180812,-8.678966 -4.98893,0.118081 -2.361624,-1.623616 z"
     id="path3" /><path
     d="m 6,12 a 5,5 0 0 1 6,0 5,5 0 0 0 6,0"
     id="path2"
     style="fill:#005b96;stroke:#03396c;fill-opacity:1;stroke-opacity:1"
     inkscape:label="path2" /><path
     d="M 5.116,4.104 A 1,1 0 0 1 6.11,3 h 11.78 a 1,1 0 0 1 0.994,1.105 L 17.19,20.21 A 2,2 0 0 1 15.2,22 H 8.8 a 2,2 0 0 1 -2,-1.79 z"
     id="path1"
     style="stroke:#03396c;stroke-opacity:1" /><path
     id="path4"
     style="fill:#ffffff;fill-opacity:1;stroke:#03396c;stroke-width:0;stroke-linejoin:round;stroke-dasharray:none;stroke-opacity:0"
     d="m 11.085745,16.961281 a 1.2860545,1.2860545 0 0 0 -1.285156,1.285156 1.2860545,1.2860545 0 0 0 1.285156,1.28711 1.2860545,1.2860545 0 0 0 1.28711,-1.28711 1.2860545,1.2860545 0 0 0 -1.28711,-1.285156 z m 0,0.675781 a 0.61080056,0.61080056 0 0 1 0.611329,0.609375 0.61080056,0.61080056 0 0 1 -0.611329,0.611329 0.61080056,0.61080056 0 0 1 -0.609375,-0.611329 0.61080056,0.61080056 0 0 1 0.609375,-0.609375 z" /><path
     id="path4-6"
     style="fill:#ffffff;fill-opacity:1;stroke:#03396c;stroke-width:0;stroke-linejoin:round;stroke-dasharray:none;stroke-opacity:0"
     d="m 13.539495,15.303616 a 0.7137863,0.7137863 0 0 0 -0.713288,0.713288 0.7137863,0.7137863 0 0 0 0.713288,0.714372 0.7137863,0.7137863 0 0 0 0.714372,-0.714372 0.7137863,0.7137863 0 0 0 -0.714372,-0.713288 z m 0,0.375073 a 0.33900668,0.33900668 0 0 1 0.339299,0.338215 0.33900668,0.33900668 0 0 1 -0.339299,0.339299 0.33900668,0.33900668 0 0 1 -0.338215,-0.339299 0.33900668,0.33900668 0 0 1 0.338215,-0.338215 z" /></svg>
